<svg viewBox="0 0 21 20" fill="none" xmlns="http://www.w3.org/2000/svg">
<circle cx="10.3881" cy="9.99999" r="6.78405" fill="white"/>
<path d="M10.3882 0C4.85818 0 0.388184 4.47 0.388184 10C0.388184 15.53 4.85818 20 10.3882 20C15.9182 20 20.3882 15.53 20.3882 10C20.3882 4.47 15.9182 0 10.3882 0ZM14.6882 14.3C14.2982 14.69 13.6682 14.69 13.2782 14.3L10.3882 11.41L7.49818 14.3C7.10818 14.69 6.47818 14.69 6.08818 14.3C5.69818 13.91 5.69818 13.28 6.08818 12.89L8.97818 10L6.08818 7.11C5.69818 6.72 5.69818 6.09 6.08818 5.7C6.47818 5.31 7.10818 5.31 7.49818 5.7L10.3882 8.59L13.2782 5.7C13.6682 5.31 14.2982 5.31 14.6882 5.7C15.0782 6.09 15.0782 6.72 14.6882 7.11L11.7982 10L14.6882 12.89C15.0682 13.27 15.0682 13.91 14.6882 14.3Z" fill="#323232"/>
</svg>
