<svg width="23" height="23" viewBox="0 0 23 23" fill="none" xmlns="http://www.w3.org/2000/svg">
<path d="M15.4178 10.2937H4.24783L9.12783 5.41373C9.51783 5.02373 9.51783 4.38373 9.12783 3.99373C8.73783 3.60373 8.10783 3.60373 7.71783 3.99373L1.12783 10.5837C0.737827 10.9737 0.737827 11.6037 1.12783 11.9937L7.71783 18.5837C8.10783 18.9737 8.73783 18.9737 9.12783 18.5837C9.51783 18.1937 9.51783 17.5637 9.12783 17.1737L4.24783 12.2937H15.4178C15.9678 12.2937 16.4178 11.8437 16.4178 11.2937C16.4178 10.7437 15.9678 10.2937 15.4178 10.2937Z" fill="currentColor"/>
<line x1="21.6204" y1="1.30096" x2="21.6204" y2="21.2765" stroke="currentColor" stroke-width="2" stroke-linecap="round"/>
</svg>
